<svg xmlns="http://www.w3.org/2000/svg" xmlns:xlink="http://www.w3.org/1999/xlink" version="1.1" x="0px" y="0px" viewBox="0 0 100 125" enable-background="new 0 0 100 100" xml:space="preserve"><path d="M70.045,40.288c-5.355,0-9.712,4.356-9.712,9.712s4.356,9.712,9.712,9.712s9.712-4.356,9.712-9.712  S75.4,40.288,70.045,40.288z M70.045,57.962c-4.391,0-7.962-3.571-7.962-7.962s3.571-7.962,7.962-7.962s7.962,3.571,7.962,7.962  S74.436,57.962,70.045,57.962z"/><path d="M70.045,33.639c-2.623,0-5.232,0.637-7.546,1.841c-0.762,0.396-1.495,0.855-2.183,1.364  c-3.743,2.18-7.156,3.239-10.434,3.239c-3.227,0-6.522-1.028-10.073-3.144c-0.727-0.549-1.503-1.04-2.309-1.46  c-2.313-1.204-4.923-1.841-7.546-1.841c-9.021,0-16.361,7.34-16.361,16.361s7.34,16.361,16.361,16.361  c2.623,0,5.232-0.637,7.546-1.841c0.806-0.42,1.583-0.911,2.31-1.46c3.55-2.115,6.846-3.144,10.072-3.144  c3.277,0,6.69,1.06,10.434,3.239c0.687,0.509,1.42,0.967,2.183,1.364c2.313,1.204,4.923,1.841,7.546,1.841  c9.021,0,16.361-7.34,16.361-16.361S79.066,33.639,70.045,33.639z M70.045,64.611c-2.376,0-4.644-0.553-6.738-1.644  c-0.693-0.361-1.361-0.78-1.984-1.244l-0.082-0.055c-4.034-2.356-7.749-3.502-11.357-3.502c-3.564,0-7.166,1.117-11.012,3.416  l-0.081,0.055c-0.658,0.501-1.364,0.949-2.097,1.33c-2.095,1.091-4.362,1.644-6.738,1.644c-8.057,0-14.611-6.555-14.611-14.611  s6.555-14.611,14.611-14.611c2.376,0,4.644,0.553,6.738,1.644c0.732,0.381,1.438,0.829,2.097,1.33l0.081,0.055  c3.846,2.299,7.447,3.416,11.012,3.416c3.608,0,7.323-1.146,11.357-3.503l0.082-0.054c0.623-0.465,1.291-0.884,1.984-1.244  c2.095-1.091,4.362-1.644,6.738-1.644c8.057,0,14.611,6.555,14.611,14.611S78.102,64.611,70.045,64.611z"/><path d="M29.955,40.288c-5.355,0-9.712,4.356-9.712,9.712s4.356,9.712,9.712,9.712s9.712-4.356,9.712-9.712  S35.311,40.288,29.955,40.288z M29.955,57.962c-4.39,0-7.962-3.571-7.962-7.962s3.572-7.962,7.962-7.962  c4.391,0,7.962,3.571,7.962,7.962S34.346,57.962,29.955,57.962z"/><path d="M70.045,44.707c-2.919,0-5.293,2.374-5.293,5.293s2.374,5.293,5.293,5.293s5.293-2.374,5.293-5.293  S72.964,44.707,70.045,44.707z M70.045,53.543c-1.954,0-3.543-1.589-3.543-3.543s1.589-3.543,3.543-3.543s3.543,1.589,3.543,3.543  S71.999,53.543,70.045,53.543z"/><path d="M29.955,44.707c-2.919,0-5.293,2.374-5.293,5.293s2.374,5.293,5.293,5.293s5.293-2.374,5.293-5.293  S32.874,44.707,29.955,44.707z M29.955,53.543c-1.954,0-3.543-1.589-3.543-3.543s1.589-3.543,3.543-3.543s3.543,1.589,3.543,3.543  S31.909,53.543,29.955,53.543z"/></svg>
